<svg version="1.1" xmlns="http://www.w3.org/2000/svg" xmlns:xlink="http://www.w3.org/1999/xlink" width="392.72573" height="270.29757" viewBox="0,0,392.72573,270.29757"><g transform="translate(-48.30389,-36.42319)"><g data-paper-data="{&quot;isPaintingLayer&quot;:true}" stroke-miterlimit="10" stroke-dasharray="" stroke-dashoffset="0" style="mix-blend-mode: normal"><text transform="translate(80.27287,109.63362) rotate(9.48164) scale(1.70304,1.70304)" font-size="40" xml:space="preserve" fill="#000000" fill-rule="nonzero" stroke="none" stroke-width="1" stroke-linecap="butt" stroke-linejoin="miter" stroke-miterlimit="10" stroke-dasharray="" stroke-dashoffset="0" font-family="Sans Serif" font-weight="normal" text-anchor="start" style="mix-blend-mode: normal"><tspan x="0" dy="0">ServerSMP</tspan></text><g fill-rule="evenodd"><g><path d="M60.1753,282.60349c10.82919,-7.81968 22.27644,-9.85338 22.27644,-9.85338l14.47906,13.71031c0,0 -12.16757,10.23473 -16.35837,10.6036c0,0 -8.89886,-3.87939 -12.08276,-7.26267" fill="#f9a41e" stroke="none" stroke-width="1" stroke-linecap="butt" stroke-linejoin="miter"/><path d="M60.1753,282.60349c11.94695,-7.46329 22.27644,-9.85338 22.27644,-9.85338l14.47906,13.71031c0,0 -12.16757,10.23473 -16.35837,10.6036c0,0 -8.89886,-3.87939 -12.08276,-7.26267" fill="none" stroke="#231f20" stroke-width="0.9025" stroke-linecap="round" stroke-linejoin="round"/><path d="M91.56731,286.64483c-7.9954,8.43898 -17.91354,3.00321 -18.45814,-1.52786c-0.54451,-4.53103 7.6004,-8.09124 11.53329,-8.54234c3.90549,-0.36516 12.72579,4.05755 6.92486,10.07019z" fill="#ffffff" stroke="none" stroke-width="1" stroke-linecap="butt" stroke-linejoin="miter"/></g><g><path d="M69.79187,288.98505c-3.59763,2.07362 -7.00466,5.62895 -10.21606,8.86765c-6.22704,6.16102 -13.79493,-0.70405 -9.62035,-6.667c3.19645,-4.38019 10.21983,-8.58222 10.21983,-8.58222" fill="#f9a41e" stroke="none" stroke-width="1" stroke-linecap="butt" stroke-linejoin="miter"/><path d="M69.79187,288.98505c-3.59763,2.07362 -7.00466,5.62895 -10.21606,8.86765c-6.22704,6.16102 -13.79493,-0.70405 -9.62035,-6.667c3.19645,-4.38019 10.21983,-8.58222 10.21983,-8.58222" fill="none" stroke="#231f20" stroke-width="0.9025" stroke-linecap="round" stroke-linejoin="round"/></g><g><path d="M84.45916,301.80811c-3.70859,4.50112 -9.11566,5.71368 -12.26095,3.10043c-2.71164,-2.19076 -1.88796,-6.85391 1.49541,-10.03778c3.77837,-3.53161 8.78667,-4.68186 11.66658,-2.72158c2.68044,1.99136 2.21686,5.82206 -0.90104,9.65893z" fill="#f9a41e" stroke="none" stroke-width="1" stroke-linecap="butt" stroke-linejoin="miter"/><path d="M84.45916,301.80811c-3.70859,4.50112 -9.11566,5.71368 -12.26095,3.10043c-2.71164,-2.19076 -1.88796,-6.85391 1.49541,-10.03778c3.77837,-3.53161 8.78667,-4.68186 11.66658,-2.72158c2.68044,1.99136 2.21686,5.82206 -0.90104,9.65893z" fill="none" stroke="#231f20" stroke-width="0.9025" stroke-linecap="round" stroke-linejoin="round"/></g><g><path d="M126.59829,259.07119c6.05257,-2.04869 14.48542,-9.77983 17.12601,-13.01118c4.26815,-5.36465 11.90582,2.46993 5.63142,9.37366c-6.16106,6.84519 -22.53444,9.77111 -22.53444,9.77111c-4.09738,0.96701 -6.10369,-4.03011 -0.223,-6.13359z" fill="#f9a41e" stroke="none" stroke-width="1" stroke-linecap="butt" stroke-linejoin="miter"/><path d="M126.59829,259.07119c6.05257,-2.04869 14.48542,-9.77983 17.12601,-13.01118c4.26815,-5.36465 11.90582,2.46993 5.63142,9.37366c-6.16106,6.84519 -22.53444,9.77111 -22.53444,9.77111c-4.09738,0.96701 -6.10369,-4.03011 -0.223,-6.13359z" fill="none" stroke="#231f20" stroke-width="0.9025" stroke-linecap="round" stroke-linejoin="round"/></g><g><path d="M77.05705,272.73513c0,0 -6.69059,-3.08052 -11.78742,2.20947c-4.36157,4.76651 -13.16565,-0.59819 -6.14483,-7.16925c6.23081,-5.87559 15.7428,-0.94821 15.7428,-0.94821z" fill="#f9a41e" stroke="none" stroke-width="1" stroke-linecap="butt" stroke-linejoin="miter"/><path d="M77.05705,272.73513c0,0 -6.69059,-3.08052 -11.78742,2.20947c-4.36157,4.76651 -12.81801,-0.20321 -6.14483,-7.16925c5.7149,-6.04008 15.7428,-0.94821 15.7428,-0.94821z" fill="none" stroke="#231f20" stroke-width="0.9025" stroke-linecap="round" stroke-linejoin="round"/></g><g><path d="M118.59801,236.62779l11.36752,-5.94296l-1.0867,12.91522c0,0 4.33663,4.2245 5.68495,11.28526c1.37572,6.97482 -0.70287,11.71143 -0.70287,11.71143c0,0 5.51419,2.61076 3.98888,10.36557c-3.0033,14.76701 -22.87212,18.85186 -43.99575,9.93806c-15.98454,-6.6122 -25.1662,-21.19113 -20.33854,-33.9555c4.41644,-11.47464 11.32147,-13.81988 11.32147,-13.81988l4.41397,-20.37972l10.83161,14.15763c0,0 4.8986,-0.80622 9.79603,0.47107c4.84257,1.44935 8.71942,3.25382 8.71942,3.25382z" fill="#f9a41e" stroke="none" stroke-width="1" stroke-linecap="butt" stroke-linejoin="miter"/><path d="M133.77488,266.56931c3.22008,1.78451 4.67686,4.04886 3.98898,10.3656c-0.82999,8.54498 -13.85989,22.67262 -43.99584,9.93803c-9.95802,-4.12232 -19.54225,-12.38821 -11.51314,-24.79495c7.27015,-11.51202 23.75431,2.74293 31.78709,3.69373c8.09128,1.06423 12.51895,-3.01816 19.73292,0.79759z" fill="#ffffff" stroke="none" stroke-width="1" stroke-linecap="butt" stroke-linejoin="miter"/><path d="M98.74668,231.15079l3.05058,4.09868" fill="none" stroke="#231f20" stroke-width="0.63175" stroke-linecap="round" stroke-linejoin="round"/><path d="M118.59801,236.62779l11.36752,-5.94296l-1.0867,12.91522c0,0 4.33663,4.2245 5.68495,11.28526c1.37572,6.97482 -0.70287,11.71143 -0.70287,11.71143c0,0 5.51419,2.61076 3.98888,10.36557c-3.0033,14.76701 -22.87212,18.85186 -43.99575,9.93806c-15.98454,-6.6122 -25.1662,-21.19113 -20.33854,-33.9555c4.41644,-11.47464 11.32147,-13.81988 11.32147,-13.81988l4.41397,-20.37972l10.83161,14.15763c0,0 4.8986,-0.80622 9.79603,0.47107c4.84257,1.44935 8.71942,3.25382 8.71942,3.25382z" fill="none" stroke="#231f20" stroke-width="0.9025" stroke-linecap="round" stroke-linejoin="round"/></g><g fill="none" stroke="#231f20" stroke-width="0.9025" stroke-linecap="round" stroke-linejoin="round"><path d="M74.5561,258.2971c0,0 -3.80707,-0.83496 -5.81211,-1.37947c-1.9777,-0.63058 -6.13986,-2.43134 -6.13986,-2.43134"/><path d="M65.17872,244.03478c0,0 2.15715,1.25615 5.82585,4.60456c3.29353,3.03943 5.09797,5.69875 5.09797,5.69875"/></g><g><path d="M132.27335,254.34447c1.41561,5.66137 -0.25675,10.90641 -3.78339,11.86594c-3.52664,0.95953 -7.48822,-2.95594 -8.9898,-8.64461c-1.41561,-5.66137 0.25675,-10.90641 3.78339,-11.86594c3.49924,-0.8736 7.57416,2.98334 8.9898,8.64461z" fill="#ffffff" stroke="#231f20" stroke-width="0.9025" stroke-linecap="round" stroke-linejoin="round"/><path d="M129.85236,257.02763c-0.01245,1.22742 -1.05675,2.12595 -2.05747,1.99633c-1.02802,-0.04365 -1.92655,-1.08795 -1.82806,-2.28794c0.01248,-1.22752 1.05675,-2.12595 2.05737,-1.99636c1.00072,0.12962 1.81321,1.14649 1.82816,2.28797" fill="#231f20" stroke="none" stroke-width="1" stroke-linecap="butt" stroke-linejoin="miter"/></g><g><path d="M106.3469,249.204c1.41564,5.66127 -0.79629,11.11328 -4.92107,12.16623c-4.12481,1.05304 -8.71197,-2.68298 -10.12758,-8.34435c-1.41564,-5.66127 0.79638,-11.11325 4.92117,-12.1662c4.12481,-1.05304 8.71188,2.68295 10.12748,8.34432z" fill="#ffffff" stroke="#231f20" stroke-width="0.9025" stroke-linecap="round" stroke-linejoin="round"/><path d="M103.58577,252.06283c-0.35639,1.11776 -1.4904,1.70345 -2.52222,1.37446c-0.94588,-0.30159 -1.59011,-1.54894 -1.23369,-2.66679c0.35639,-1.11776 1.4904,-1.70345 2.52222,-1.37446c1.09036,0.44233 1.59011,1.54894 1.23369,2.66679" fill="#231f20" stroke="none" stroke-width="1" stroke-linecap="butt" stroke-linejoin="miter"/></g><g stroke="#231f20" stroke-linecap="round" stroke-linejoin="round"><path d="M114.03569,263.11737c1.80193,0.29041 5.17156,0.41753 4.85752,2.59083c-0.27416,0.85985 -3.11789,3.83687 -5.2949,3.23753c-2.09104,-0.57204 -5.10674,-4.18592 -4.32795,-5.73736c0.75149,-1.46547 3.13534,-0.32648 4.76534,-0.091z" fill="#231f20" stroke-width="0.63175"/><path d="M118.43092,273.99141c-0.57204,2.09104 -14.56514,-0.6655 -13.54329,-3.27616" fill="none" stroke-width="0.9025"/></g><g fill="#231f20" stroke="#231f20" stroke-width="0.63175" stroke-linecap="round" stroke-linejoin="round" opacity="0.1"><path d="M77.27885,274.41625c-0.85238,0.29658 -1.81809,0.6517 -2.86987,0.97949"/><path d="M95.40549,287.67916c-0.50844,0.40625 -1.2711,1.01567 -2.11968,1.59759"/></g><g fill="none" stroke="#231f20" stroke-width="0.9025" stroke-linecap="round" stroke-linejoin="round"><path d="M146.92187,272.27677c0,0 -2.49853,1.00321 -5.61024,0.95833c-2.65431,0.00617 -7.60277,-0.8138 -7.60277,-0.8138"/><path d="M141.9933,283.87235c0,0 -2.00511,-0.54464 -4.7329,-1.79329c-2.72789,-1.24868 -5.18153,-3.35718 -5.18153,-3.35718"/></g></g></g></g></svg>